<?xml version="1.0" standalone="no"?>
<!DOCTYPE svg PUBLIC "-//W3C//DTD SVG 20010904//EN"
 "http://www.w3.org/TR/2001/REC-SVG-20010904/DTD/svg10.dtd">
<svg version="1.0" xmlns="http://www.w3.org/2000/svg"
 width="208.000000pt" height="208.000000pt" viewBox="0 0 208.000000 208.000000"
 preserveAspectRatio="xMidYMid meet">
<metadata>
Created by potrace 1.14, written by Peter Selinger 2001-2017
</metadata>
<g transform="translate(0.000000,208.000000) scale(0.100000,-0.100000)"
fill="#000000" stroke="none">
<path d="M40 1416 l0 -664 43 -16 c23 -9 202 -72 397 -140 l355 -124 5 -230
c3 -127 7 -233 10 -235 3 -2 271 89 595 202 l590 207 3 667 2 666 -47 -14
c-27 -8 -196 -55 -378 -105 -181 -50 -338 -93 -347 -96 -15 -5 -18 6 -20 103
l-3 108 -580 162 c-319 89 -590 164 -602 168 l-23 5 0 -664z m603 348 c249
-69 455 -128 458 -132 4 -4 4 -38 0 -77 l-6 -70 -130 -36 -130 -36 -3 -80 -3
-81 -57 -6 c-31 -3 -101 -8 -154 -12 l-97 -6 121 -181 121 -181 36 70 36 69 3
-97 c1 -54 1 -140 0 -191 l-3 -93 -327 114 -328 115 0 518 c0 286 3 519 6 519
3 0 209 -57 457 -126z m1255 -725 l-3 -521 -450 -157 -450 -158 -9 104 c-5 57
-7 106 -4 108 2 2 57 -14 121 -37 65 -22 121 -38 125 -34 3 4 9 78 12 164 l5
157 178 12 c99 6 181 14 184 17 4 3 -199 312 -233 355 -1 1 -19 -33 -40 -78
-20 -45 -38 -81 -40 -81 -2 0 -15 5 -29 12 l-26 12 3 227 c2 125 6 231 10 235
6 6 616 180 641 183 4 1 6 -233 5 -520z m-802 -46 c-3 -3 -30 6 -60 20 l-56
26 -2 115 c-1 64 -2 124 -2 133 -1 12 15 21 59 33 l60 17 3 -170 c1 -93 0
-172 -2 -174z m-50 -60 l57 -28 -6 -179 c-3 -98 -8 -180 -11 -183 -2 -3 -27 3
-55 12 l-51 17 0 194 c0 107 2 194 5 194 2 0 30 -12 61 -27z m214 -110 c0 -5
-5 -15 -10 -23 -8 -12 -10 -11 -10 8 0 12 5 22 10 22 6 0 10 -3 10 -7z"/>
</g>
</svg>
